PathFileType	4	(X/Y/Z)	OpenSim_Sub07_EMGStiffKnee_Gyro.trc
DataRate	CameraRate	NumFrames	NumMarkers	Units	OrigDataRate	OrigDataStartFrame	OrigNumFrames
100	100	40	8	m	100	1848	7388
Frame#	Time	torso_imu_offset_imu	pelvis_imu_offset_imu	tibia_r_imu_offset_imu	femur_r_imu_offset_imu	tibia_l_imu_offset_imu	femur_l_imu_offset_imu	toes_r_imu_offset_imu	toes_l_imu_offset_imu
				X1	Y1	Z1	X2	Y2	Z2	X3	Y3	Z3	X4	Y4	Z4	X5	Y5	Z5	X6	Y6	Z6	X7	Y7	Z7	X8		Y8	Z8	

1848	18.47000000	0.00770745	0.25294352	0.05091902	0.10767740	0.23742440	-0.13812532	0.35236075	-0.13057664	-0.31548364	0.65428084	0.30995766	-0.82497833	0.11066886	-0.63473878	-2.92710138	-0.90074226	0.15040587	-0.73568275	0.04041414	0.03762962	-0.16128153	0.36722319	2.31278663	-0.84778241
1849	18.48000000	0.01674695	0.23349540	0.05357780	0.11502617	0.25510827	-0.12199935	0.29507676	-0.13208079	-0.34171273	0.58061331	0.34958087	-0.83514252	-0.06360245	-0.71246619	-2.88274344	-0.95817176	0.13549147	-0.66524397	0.02450339	0.02489547	-0.13449475	0.37448761	2.15449701	-0.85946629
1850	18.49000000	0.01832000	0.21785185	0.05983468	0.12095107	0.27154704	-0.10217814	0.24519334	-0.13370719	-0.34828580	0.47861700	0.38813422	-0.81886811	-0.24738157	-0.75544898	-2.81873829	-0.95994436	0.11066660	-0.60906435	0.02104491	0.01065587	-0.10407433	0.42572848	1.94547164	-0.91883311
1851	18.50000000	0.01743911	0.20238152	0.06346709	0.11526529	0.28323802	-0.08832656	0.17895794	-0.15961799	-0.34072563	0.37366636	0.42893790	-0.79577030	-0.42767562	-0.75070154	-2.76414896	-0.90257677	0.10006415	-0.57965552	0.00687914	-0.00145126	-0.07078553	0.43768110	1.79511537	-1.00918715
1852	18.51000000	0.01465134	0.18840402	0.06575681	0.10818128	0.28041995	-0.07467952	0.11688122	-0.17852252	-0.36265992	0.24811753	0.47825669	-0.76314900	-0.57198483	-0.71226681	-2.70821986	-0.82816235	0.10731972	-0.56719738	-0.01310224	-0.00376212	-0.04474659	0.34148509	1.65749391	-1.09608166
1853	18.52000000	0.01179018	0.17705595	0.06737926	0.08903828	0.27125852	-0.06247897	0.04225875	-0.17192120	-0.40969511	0.11254464	0.51885254	-0.72473469	-0.70018693	-0.67601201	-2.64650409	-0.75913735	0.13754821	-0.54922564	-0.01637131	-0.02223675	-0.02877025	0.32288294	1.49380777	-1.17089895
1854	18.53000000	0.00914152	0.16919256	0.07211798	0.06719962	0.26620431	-0.05268232	-0.06390440	-0.18788894	-0.44288242	-0.01588737	0.54681771	-0.68503049	-0.77833216	-0.63545666	-2.57337881	-0.68844697	0.17113545	-0.52847900	-0.01424882	-0.02623399	-0.03094392	0.40162506	1.53475168	-1.27451327
1855	18.54000000	0.00251451	0.16343295	0.07195156	0.04462992	0.25864538	-0.04365596	-0.10558843	-0.20313110	-0.46797729	-0.10524968	0.55791325	-0.65625023	-0.73975476	-0.59380743	-2.52626752	-0.60734871	0.14906755	-0.51280028	-0.01838544	-0.04107687	-0.03585300	0.37895161	1.61334252	-1.34839540
1856	18.55000000	0.00167826	0.16361544	0.06371521	0.02389794	0.23864715	-0.04064815	-0.11139318	-0.21239161	-0.51020383	-0.13583026	0.55907179	-0.62905504	-0.68600262	-0.55275389	-2.48440911	-0.50937138	0.07431025	-0.50437762	-0.02190906	-0.06278902	-0.04191780	0.29923812	1.45658660	-1.34688567
1857	18.56000000	-0.00186061	0.16930607	0.05633230	0.00188108	0.20706971	-0.04773043	-0.13583133	-0.23575230	-0.57185507	-0.13822545	0.55728286	-0.59150705	-0.62803905	-0.51337520	-2.41015258	-0.41439105	0.00815128	-0.48838973	-0.02013456	-0.04988046	-0.05501322	0.41966591	1.32520573	-1.37651157
1858	18.57000000	-0.00586015	0.17680678	0.04594219	-0.01924805	0.17064596	-0.04093234	-0.10922509	-0.25131357	-0.62539205	-0.13471051	0.53649009	-0.54286134	-0.57684987	-0.48325316	-2.34400450	-0.37594633	-0.03954070	-0.45810318	-0.01896534	-0.05004887	-0.06315699	0.47757643	1.40652569	-1.46515963
1859	18.58000000	-0.00236604	0.18415463	0.03151080	-0.04856599	0.12293056	-0.04343325	-0.08391249	-0.26127526	-0.67255038	-0.14250227	0.48753307	-0.49019509	-0.52989671	-0.52407478	-2.27950488	-0.36805820	-0.09278973	-0.41485770	-0.02574536	-0.08269051	-0.05347095	0.38520301	1.49936631	-1.54200907
1860	18.59000000	0.01331455	0.18358884	0.01137678	-0.09735849	0.07998956	-0.06730611	-0.07788953	-0.27163887	-0.73952435	-0.13928201	0.41142519	-0.43838559	-0.52760268	-0.55134360	-2.11764738	-0.21044321	-0.13508827	-0.35310310	-0.03202160	-0.09844110	-0.04702822	0.20836701	1.51838104	-1.61854984
1861	18.60000000	0.03217372	0.16950093	-0.00439038	-0.14902314	0.03192858	-0.07030087	-0.06705956	-0.28886864	-0.82637621	-0.10296387	0.34145937	-0.38967439	-0.58957539	-0.59477150	-1.87051596	-0.17421184	-0.24587109	-0.28736109	-0.03424206	-0.08234687	-0.04346453	0.02399563	1.53083950	-1.69861032
1862	18.61000000	0.06161636	0.14359623	-0.03143389	-0.19089440	-0.04676855	-0.07623005	-0.04371483	-0.30002033	-0.91239750	-0.05445052	0.28508961	-0.34941354	-0.63949946	-0.66472492	-1.68309040	-0.25774327	-0.42039662	-0.20138905	-0.04373155	-0.11219779	-0.03166911	-0.23094630	1.35000400	-1.79735656
1863	18.62000000	0.09935692	0.10974015	-0.07282412	-0.24008558	-0.13409199	-0.08278433	-0.04146688	-0.32816043	-0.99521348	-0.02984739	0.21319361	-0.30912252	-0.72666876	-0.55785693	-1.51311574	0.01108282	-0.48937806	-0.12209718	-0.04981205	-0.12967375	-0.02377829	0.35733481	1.08515320	-1.81150932
1864	18.63000000	0.12985042	0.07133923	-0.10263653	-0.31385761	-0.19420106	-0.08117100	-0.06736473	-0.36767971	-1.07824239	-0.05253383	0.12177838	-0.27141799	-0.60007743	-0.36716063	-1.26860098	0.32703988	-0.51508262	-0.10854262	-0.06120187	-0.15818673	-0.01151679	0.69851506	0.99315203	-1.63655015
1865	18.64000000	0.15477919	0.02450536	-0.13052241	-0.38317355	-0.21425602	-0.07141360	-0.08044037	-0.40328659	-1.18381478	-0.10057013	0.04124036	-0.23451446	-0.24220378	-0.26803854	-1.05996791	0.71736437	-0.54949294	-0.10569733	-0.07673909	-0.15621242	-0.00096623	-0.16010666	0.84830108	-1.38288616
1866	18.65000000	0.19817282	-0.02285685	-0.15733337	-0.45152581	-0.22857604	-0.06006434	-0.08421652	-0.43208679	-1.28931963	-0.15193048	-0.01394922	-0.20758364	-0.20968021	-0.20311093	-0.80727184	1.12291205	-0.61805089	-0.06980636	-0.08255392	-0.18999256	0.01086969	-0.28559931	0.78018744	-1.19973220
1867	18.66000000	0.24957858	-0.06086200	-0.18135222	-0.51106216	-0.26292337	-0.04109478	-0.10378483	-0.46682719	-1.38195123	-0.19803371	-0.05327945	-0.17474994	-0.54808559	-0.22453169	-0.45436837	1.30543600	-0.67691018	0.00143751	-0.15174336	-0.21882119	0.05388128	-0.36523243	0.52957028	-1.04655122
1868	18.67000000	0.30271874	-0.09183289	-0.20368902	-0.56470500	-0.32049313	-0.02215158	-0.10636311	-0.50448943	-1.46661203	-0.22364783	-0.07135900	-0.11145306	-0.84332711	-0.27605683	-0.09599437	1.14681638	-0.66479136	0.06943058	-0.29702777	-0.33880398	0.12147119	-0.15933799	0.37537369	-0.97417537
1869	18.68000000	0.34819776	-0.12406897	-0.21497067	-0.62178117	-0.35863239	-0.01057950	-0.11576418	-0.55403146	-1.54484135	-0.23202556	-0.07393187	-0.01964411	-0.97619388	-0.24414968	0.19790872	0.79935213	-0.57751533	0.10648678	-0.33501979	-0.50316298	0.15984599	0.46001205	-1.06408787	-0.56302566
1870	18.69000000	0.38467336	-0.15965806	-0.21453669	-0.61523770	-0.34703819	-0.00591729	-0.11911466	-0.59926397	-1.62672839	-0.27661024	-0.04771818	0.09576245	-1.27045963	-0.06129562	0.47731596	0.43467352	-0.49739268	0.18185614	-0.34466058	-0.65013757	0.23468066	-3.41987105	-4.21742750	0.31904016
1871	18.70000000	0.41132506	-0.19211591	-0.20567522	-0.55297536	-0.32551146	-0.00490724	-0.17635465	-0.64795210	-1.72601078	-0.35056956	-0.00027441	0.20007882	-1.54337024	0.10378521	0.89664630	0.15270387	-0.53593206	0.27733892	-0.45521870	-0.80741846	0.38089443	-5.02284673	-3.17214068	0.17621184
1872	18.71000000	0.42474933	-0.20033177	-0.19151454	-0.53825715	-0.30244276	-0.03153908	-0.23845730	-0.69445756	-1.85889807	-0.39239721	0.04211522	0.26951346	-1.38409402	0.00334980	1.44473087	-0.08042785	-0.68189340	0.26418888	-0.58039199	-0.99317755	0.53595513	1.16726746	-0.77482257	-0.29030134
1873	18.72000000	0.41656056	-0.20467950	-0.16935287	-0.47159870	-0.27115190	-0.05807200	-0.18700058	-0.72367464	-1.97702935	-0.37868344	0.03961920	0.33953352	-1.47979542	-0.22206714	1.66510077	-0.44713217	-0.96470639	0.33348730	-0.70796132	-1.28505878	0.73851134	-0.99448847	-1.96051420	0.36092687
1874	18.73000000	0.36895537	-0.22291614	-0.14266159	-0.34614602	-0.26373638	-0.07639840	-0.17558269	-0.79536200	-2.09256188	-0.33650272	-0.02090522	0.44167585	-1.42464848	-0.61474315	1.26965163	-0.82894496	-1.23702655	0.54173565	-0.87687986	-1.65780563	0.92018617	-3.63359439	-2.86594419	0.77351994
1875	18.74000000	0.34079194	-0.22556179	-0.13076553	-0.29399563	-0.30917981	-0.07543060	-0.27260901	-0.93569100	-2.22011324	-0.30096936	-0.11754858	0.58299518	-0.32520512	-0.85905152	0.82756779	-1.07687000	-0.95323326	0.39546947	-0.95752715	-2.12642493	0.98218640	1.66351023	-3.22298602	0.51504680
1876	18.75000000	0.34432385	-0.19716394	-0.11478090	-0.29543542	-0.34557528	-0.07366639	-0.36819624	-1.06261976	-2.32097334	-0.24230841	-0.24047640	0.74387421	0.39174095	-0.54452012	0.70162695	-1.41067864	-0.18529816	0.00435714	-0.97819110	-2.63126650	1.02678856	2.25598700	-2.68890657	0.50312743
1877	18.76000000	0.34707688	-0.15755579	-0.08879575	-0.24593291	-0.33855977	-0.09685490	-0.38663204	-1.14348056	-2.42443926	-0.19084881	-0.35617375	0.90253583	-0.34549932	-0.01571456	0.88568475	-1.43090745	0.23365938	-0.10915533	-1.16867690	-3.34365875	1.20919074	-1.32813557	-1.15412376	0.51371887
1878	18.77000000	0.33152146	-0.13412350	-0.07017046	-0.16995439	-0.33587740	-0.13135919	-0.38793184	-1.21329187	-2.53186031	-0.21656053	-0.42821949	1.08215479	-1.15604235	0.49163505	1.25756083	-0.83906574	0.10482640	-0.10065974	-1.13218338	-4.10077788	1.24406583	-1.14676254	0.17815885	0.28268066
1879	18.78000000	0.30514463	-0.12597005	-0.08019190	-0.12590897	-0.35281511	-0.11918414	-0.46087035	-1.30218876	-2.59097957	-0.37239284	-0.37097474	1.33589228	-1.11043309	0.89417946	1.39141426	0.04989812	-0.08831393	-0.13779164	-1.06324654	-4.76463879	1.19452556	0.13166002	-0.56144556	0.26145634
1880	18.79000000	0.29448321	-0.11848052	-0.11029286	-0.15463367	-0.35794413	-0.05732625	-0.72742199	-1.35403048	-2.61074427	-0.46286070	-0.16088342	1.63864651	-0.87015767	0.87336401	1.38564479	1.13016953	-0.15244074	-0.18443577	-1.23268965	-5.44234321	1.33200033	-0.59119318	-0.96063480	0.15176929
1881	18.80000000	0.29996999	-0.09392355	-0.13414981	-0.22075750	-0.33497914	-0.00961454	-0.89243002	-1.29028979	-2.68308574	-0.21001408	0.02690974	1.88636867	-0.79592792	0.23735196	1.41551772	1.70206769	-0.13832831	-0.07401378	-1.56445070	-6.15222812	1.12268288	-1.13275086	-0.18198440	0.02176573
1882	18.81000000	0.29159491	-0.06106126	-0.13935874	-0.25680791	-0.29192801	0.01702171	-0.77560352	-1.21753523	-2.84836665	0.24749557	0.03985800	1.99748636	-0.93454917	-0.41146196	1.41539508	1.56904100	-0.18981505	0.31421373	-1.33515531	-6.16862161	0.58562306	-0.16222282	0.16024788	-0.03505009
1883	18.82000000	0.28925389	-0.03992801	-0.13435085	-0.28082265	-0.22301649	0.03230895	-0.81554521	-1.16398029	-2.93152469	0.59403401	-0.15068393	2.02467268	-1.04890636	-0.43679873	1.27178533	1.39791942	-0.28493833	0.76366546	-0.96325855	-6.49282929	0.49631770	0.10415707	-0.16691186	-0.00164635
1884	18.83000000	0.29218029	-0.02917848	-0.12680721	-0.29619157	-0.14464410	0.01701450	-0.72860571	-1.06251309	-2.82238427	0.74243490	-0.33630629	2.14239097	-0.80705418	-0.30901000	1.00131454	1.33702019	-0.41051541	1.04411697	-1.52785841	-6.97891615	0.61424215	-0.60259419	-0.21278345	0.08457137
1885	18.84000000	0.28692607	-0.02711476	-0.11500296	-0.26783048	-0.08203639	-0.02318985	-0.22092310	-0.92473197	-2.72951469	0.85527743	-0.30794308	2.30424080	-0.23063029	-0.40919673	0.76120869	1.16022180	-0.47244214	1.16877603	-0.87671460	-6.30869912	0.09001956	-0.17345856	-0.05134872	0.06185902
1886	18.85000000	0.27780617	-0.02285068	-0.11130657	-0.23143288	-0.03163792	-0.07225905	0.51212011	-0.86418426	-2.69473185	0.85819561	-0.23083381	2.39405017	0.04589475	-0.40722395	0.68382161	0.86556685	-0.44226473	1.17815704	0.49483862	-5.95457561	-0.70865529	-0.12476572	-0.08215711	0.10863031
1887	18.86000000	0.26604368	-0.02033326	-0.10148294	-0.20853837	0.00599380	-0.10207567	0.95424495	-0.95715087	-2.50803684	0.71301891	-0.32123052	2.36143110	-0.20966315	-0.28953681	0.73287290	0.49294118	-0.44179637	1.08081061	1.34222644	-5.76712534	-1.26882384	-0.40387096	-0.00400671	0.16526421
